<?xml version="1.0" standalone="no"?>
<!DOCTYPE svg PUBLIC "-//W3C//DTD SVG 20010904//EN"
 "http://www.w3.org/TR/2001/REC-SVG-20010904/DTD/svg10.dtd">
<svg version="1.0" xmlns="http://www.w3.org/2000/svg"
 width="300.000000pt" height="167.000000pt" viewBox="0 0 300.000000 167.000000"
 preserveAspectRatio="xMidYMid meet">
<metadata>
Created by potrace 1.10, written by Peter Selinger 2001-2011
</metadata>
<g transform="translate(0.000000,167.000000) scale(0.100000,-0.100000)"
fill="#000000" stroke="none">
<path d="M70 974 l0 -405 243 3 c269 3 273 4 343 74 125 126 88 346 -71 420
-27 13 -59 24 -70 24 -18 0 -18 -1 -3 -17 9 -9 39 -28 65 -42 58 -32 108 -101
117 -165 10 -64 -14 -143 -58 -187 -31 -32 -143 -95 -152 -86 -2 2 -3 176 -2
386 l3 382 42 -30 c75 -54 77 -126 5 -188 -44 -37 -39 -50 12 -29 100 42 101
203 2 250 -28 13 -73 16 -255 16 l-221 0 0 -406z m368 358 c9 -7 12 -86 10
-363 l-3 -354 -165 0 -165 0 -3 354 c-2 277 1 356 10 363 7 4 78 8 158 8 80 0
151 -4 158 -8z"/>
<path d="M840 973 l0 -408 340 3 340 3 0 114 0 115 -135 0 -135 0 0 141 c0
130 1 140 17 128 10 -9 52 -16 112 -19 l96 -5 0 -75 0 -75 -102 -5 c-90 -4
-125 -12 -112 -24 2 -2 61 -6 132 -9 l127 -6 0 120 0 119 -135 0 -135 0 0 136
c0 106 3 133 13 127 6 -4 57 -10 112 -13 l100 -5 0 -75 0 -75 -95 -5 c-52 -3
-101 -9 -107 -13 -32 -21 -5 -27 117 -27 l130 0 0 120 0 120 -340 0 -340 0 0
-407z m374 354 c16 -12 18 -23 12 -98 -4 -46 -6 -102 -5 -124 3 -50 2 -218 -1
-265 -1 -19 1 -67 5 -107 4 -39 5 -83 1 -97 l-7 -26 -167 2 -167 3 -3 349 c-2
249 1 353 9 362 16 20 297 20 323 1z m155 -557 c113 0 111 1 111 -86 0 -86 7
-82 -138 -86 l-92 -3 0 98 c0 93 1 97 19 87 11 -5 56 -10 100 -10z"/>
<path d="M1790 1365 c-167 -52 -225 -256 -114 -402 25 -33 109 -83 139 -83 13
0 15 -23 15 -160 0 -88 4 -160 8 -160 4 0 34 7 66 15 111 29 206 114 258 232
29 65 28 167 -2 245 -39 104 -149 199 -252 216 l-42 7 3 53 c3 59 -1 61 -79
37z m39 -72 c6 -21 11 -113 11 -205 0 -187 1 -184 -68 -149 -80 41 -116 106
-110 202 3 58 8 74 34 106 27 33 96 82 116 83 4 0 12 -17 17 -37z m236 -155
c79 -87 104 -207 65 -310 -27 -73 -104 -158 -172 -192 -44 -22 -85 -33 -89
-23 -6 11 -12 257 -6 257 4 0 7 87 7 194 l0 194 79 -39 c48 -24 94 -56 116
-81z"/>
<path d="M2240 1262 l0 -118 70 0 71 1 -1 -287 -1 -288 206 0 205 0 0 291 0
291 70 -3 71 -4 2 118 2 117 -347 0 -348 0 0 -118z m140 -4 c0 -79 -3 -99 -12
-90 -7 7 -22 12 -34 12 -49 0 -54 8 -54 81 0 47 4 71 13 73 6 2 26 8 42 14 17
5 33 10 38 11 4 1 7 -45 7 -101z m518 13 c3 -71 -7 -91 -49 -91 -15 0 -31 -5
-34 -10 -4 -6 -11 -8 -16 -5 -9 6 -13 178 -3 187 3 3 26 0 52 -6 l47 -12 3
-63z m-139 60 c10 -7 12 -29 6 -102 -4 -52 -10 -211 -13 -354 l-7 -260 -157
-3 c-157 -2 -158 -2 -162 20 -7 36 -15 695 -9 702 10 9 326 7 342 -3z"/>
<path d="M60 374 c0 -77 2 -84 20 -84 16 0 20 7 20 30 0 25 4 30 23 30 13 0
31 8 40 18 37 40 12 78 -55 85 l-48 5 0 -84z m78 29 c-5 -26 -38 -29 -38 -4 0
15 6 21 21 21 14 0 19 -5 17 -17z"/>
<path d="M238 372 c-3 -73 -1 -82 15 -82 12 0 17 8 17 30 0 17 5 30 11 30 5 0
15 -13 20 -30 8 -22 17 -30 35 -30 l23 0 -20 34 c-16 27 -17 35 -6 39 21 8 27
43 11 65 -9 14 -28 21 -58 24 l-45 3 -3 -83z m77 28 c0 -8 -10 -16 -22 -18
-18 -3 -23 2 -23 18 0 16 5 21 23 18 12 -2 22 -10 22 -18z"/>
<path d="M428 430 c-26 -27 -30 -36 -25 -68 8 -46 38 -72 84 -72 85 0 117 117
42 155 -42 22 -67 18 -101 -15z m90 -22 c19 -19 15 -66 -7 -78 -27 -14 -37
-13 -55 6 -32 31 -14 84 29 84 12 0 26 -5 33 -12z"/>
<path d="M624 451 c-2 -2 -4 -40 -4 -83 l0 -78 40 0 c21 0 50 5 64 11 47 22
55 103 15 136 -14 11 -106 22 -115 14z m101 -65 c8 -24 6 -31 -14 -47 -39 -32
-51 -25 -51 32 0 49 1 50 27 47 20 -2 30 -11 38 -32z"/>
<path d="M820 391 c0 -83 14 -104 69 -99 45 4 61 32 61 111 0 50 -2 57 -20 57
-18 0 -20 -7 -20 -65 0 -49 -4 -67 -15 -71 -29 -12 -45 16 -45 77 0 46 -3 59
-15 59 -12 0 -15 -14 -15 -69z"/>
<path d="M1037 440 c-33 -26 -43 -70 -23 -108 17 -34 34 -42 80 -42 48 0 88
50 51 64 -8 3 -15 1 -15 -4 0 -5 -9 -14 -21 -20 -43 -24 -92 43 -57 78 16 16
48 15 67 -2 19 -18 44 -6 36 16 -7 17 -47 38 -74 38 -10 0 -30 -9 -44 -20z"/>
<path d="M1204 451 c-14 -15 0 -31 27 -31 l31 0 -4 -65 c-3 -57 -2 -65 14 -65
15 0 18 9 18 65 0 63 1 65 25 65 17 0 25 6 25 18 0 14 -10 17 -66 17 -36 0
-68 -2 -70 -4z"/>
<path d="M1412 444 c-13 -9 -22 -26 -22 -40 0 -20 9 -29 46 -44 25 -11 42 -24
39 -30 -10 -16 -43 -12 -53 6 -7 12 -14 14 -27 7 -17 -10 -16 -12 4 -32 40
-40 116 -19 109 29 -3 23 -27 41 -72 55 -18 5 -18 7 -3 22 13 13 20 15 29 5
14 -14 48 -16 48 -3 0 13 -41 41 -60 41 -9 0 -26 -7 -38 -16z"/>
</g>
</svg>
