<?xml version="1.0" standalone="no"?>
<!DOCTYPE svg PUBLIC "-//W3C//DTD SVG 20010904//EN"
 "http://www.w3.org/TR/2001/REC-SVG-20010904/DTD/svg10.dtd">
<svg version="1.0" xmlns="http://www.w3.org/2000/svg"
 width="300.000000pt" height="219.000000pt" viewBox="0 0 300.000000 219.000000"
 preserveAspectRatio="xMidYMid meet">
<metadata>
Created by potrace 1.10, written by Peter Selinger 2001-2011
</metadata>
<g transform="translate(0.000000,219.000000) scale(0.100000,-0.100000)"
fill="#000000" stroke="none">
<path d="M598 1769 l5 -427 -44 -7 c-330 -55 -454 -434 -214 -654 77 -70 146
-95 260 -95 109 0 180 24 249 85 l45 40 25 -49 c14 -27 50 -72 81 -100 99 -91
249 -116 371 -63 42 19 45 19 50 3 15 -52 62 -128 101 -162 163 -143 404 -85
508 122 19 39 35 80 34 92 0 13 -5 5 -13 -19 -62 -195 -235 -302 -408 -251
-77 22 -155 94 -194 178 -26 56 -29 74 -29 158 0 82 4 103 28 154 41 89 88
141 160 175 34 17 80 33 102 35 35 5 33 4 -17 -13 -31 -10 -72 -28 -91 -40
-78 -48 -149 -157 -161 -246 l-6 -40 11 35 c21 69 64 152 96 185 18 18 57 45
87 60 l55 27 33 -20 c34 -20 57 -19 71 4 11 19 41 17 85 -5 62 -32 80 -60 106
-163 13 -53 32 -108 41 -122 33 -50 -15 -179 -94 -256 -114 -111 -266 -116
-381 -13 -40 35 -89 137 -100 208 l-9 60 4 -73 c3 -57 10 -84 36 -133 141
-264 509 -178 573 133 12 57 11 61 -17 117 -18 37 -31 82 -34 120 -3 33 -10
61 -15 61 -6 0 -8 6 -5 14 6 15 -39 63 -49 53 -4 -3 -16 -1 -28 5 -11 7 -48
20 -81 30 -55 17 -56 18 -17 13 24 -3 61 -15 83 -25 21 -11 39 -18 39 -15 0
10 -80 45 -118 51 -35 6 -41 10 -45 38 -3 17 -4 283 -2 591 1 354 0 457 -4
280 -6 -300 -15 -261 -19 90 -2 104 -5 192 -8 195 -4 3 -3 -263 1 -591 l8
-596 -39 -7 c-21 -4 -56 -17 -77 -28 -21 -10 -40 -18 -41 -16 -2 2 -14 25 -27
52 -46 93 -183 188 -267 185 -20 -1 -17 -3 14 -9 93 -19 179 -75 224 -147 17
-26 30 -52 30 -57 0 -6 -9 5 -21 24 -53 88 -146 154 -233 166 -41 6 -44 5 -40
-14 3 -11 1 -23 -6 -27 -15 -9 -42 15 -36 32 16 41 -132 -10 -198 -68 -25 -22
-46 -36 -46 -31 0 16 69 69 120 93 55 26 115 35 133 20 8 -6 17 -8 20 -4 4 3
6 236 5 517 l-3 511 -5 -420 -5 -420 -4 345 c-2 190 -7 379 -11 420 -4 41 -5
-136 -3 -395 2 -259 6 -485 8 -502 4 -32 2 -33 -30 -33 -51 0 -136 -35 -184
-76 -23 -20 -43 -35 -45 -33 -1 2 -13 25 -25 51 -46 96 -168 183 -286 202
l-40 7 0 427 1 427 -6 -360 c-5 -347 -6 -352 -9 -130 -2 127 -7 289 -11 360
-4 74 -5 -55 -2 -296z m-8 -448 c-8 -5 -34 -11 -58 -15 -129 -19 -238 -122
-277 -260 -48 -164 49 -352 213 -418 85 -33 207 -32 284 4 79 37 142 98 181
177 29 59 32 74 32 156 0 78 -4 97 -28 147 -49 99 -183 198 -270 198 -12 0
-29 5 -37 10 -32 21 76 -3 136 -30 87 -39 138 -89 182 -178 34 -69 37 -83 37
-158 0 -74 -4 -89 -36 -151 -29 -58 -33 -73 -24 -93 10 -26 35 -39 35 -19 0 6
-5 19 -10 29 -8 14 -5 27 10 53 28 47 53 171 45 220 -6 32 -3 43 15 62 13 14
27 22 33 18 6 -3 7 -1 3 5 -4 7 13 21 43 37 57 28 101 33 101 10 0 -8 -7 -15
-15 -15 -29 0 -76 -31 -95 -63 -22 -35 -26 -101 -10 -156 5 -19 10 -51 12 -70
1 -20 6 -41 11 -48 5 -7 6 -17 3 -22 -4 -5 -2 -12 4 -16 5 -3 23 -34 40 -68
48 -99 82 -129 147 -129 26 0 32 -3 24 -11 -7 -7 -42 -11 -89 -10 -59 1 -89 7
-127 26 -55 27 -111 81 -117 111 -1 11 -10 21 -18 24 -12 4 -13 2 -2 -9 14
-16 16 -33 2 -24 -28 17 -4 -18 40 -59 88 -82 200 -112 310 -82 74 19 77 12 4
-10 -149 -43 -321 33 -392 175 l-29 57 -39 -34 c-21 -19 -68 -49 -104 -66 -58
-28 -75 -31 -155 -31 -76 0 -99 4 -147 27 -79 37 -120 70 -162 131 -97 142
-81 327 38 455 61 66 168 116 256 121 13 0 13 -1 0 -8z m46 -22 c3 -6 0 -18
-9 -26 -18 -18 -37 -9 -37 18 0 21 34 27 46 8z m-61 -29 c23 -26 57 -26 80 0
21 23 46 20 115 -16 138 -70 213 -223 180 -366 -24 -105 -91 -182 -207 -239
-40 -20 -63 -24 -138 -24 -79 0 -97 4 -149 29 -75 37 -131 93 -165 165 -36 76
-37 202 -2 273 43 90 124 161 211 188 41 13 56 11 75 -10z m799 -145 c49 -21
123 -90 148 -138 l20 -39 -34 -36 c-18 -20 -35 -39 -38 -42 -22 -22 -86 -180
-74 -180 3 0 2 -5 -1 -11 -4 -6 -23 7 -45 31 -34 37 -43 41 -74 37 -20 -3 -36
0 -36 5 0 6 -6 24 -14 41 -8 18 -17 49 -20 71 -4 33 -1 41 24 62 27 24 28 27
24 100 -3 69 -1 78 19 95 27 23 54 24 101 4z m-205 -202 c-13 -15 50 -223 66
-223 7 0 31 -28 54 -62 l41 -63 -26 -3 c-49 -6 -72 7 -104 59 -42 68 -65 131
-84 222 -25 120 -22 160 17 203 l32 37 7 -79 c3 -46 2 -84 -3 -91z m59 90 c3
-68 1 -73 -18 -73 -16 0 -20 6 -20 38 0 20 -3 54 -7 75 -6 37 -5 39 18 35 22
-3 24 -8 27 -75z m550 -60 c-5 -26 -38 -29 -38 -4 0 15 6 21 21 21 14 0 19 -5
17 -17z m-424 -308 c17 -32 18 -37 4 -51 -13 -13 -19 -8 -56 48 -39 58 -41 64
-24 76 15 11 20 9 37 -12 11 -14 29 -41 39 -61z"/>
<path d="M388 1147 c-12 -4 -24 -10 -26 -12 -2 -2 -6 -67 -9 -144 -6 -143 4
-201 32 -201 6 0 52 28 100 61 73 51 92 60 106 50 12 -7 20 -7 24 -1 11 18 30
10 115 -51 47 -33 86 -62 88 -63 1 -2 -74 -1 -166 2 -93 2 -191 1 -218 -3 -48
-8 -49 -8 -19 -17 46 -15 352 -15 386 -1 52 22 65 58 62 174 -2 57 -5 120 -7
139 -2 19 -4 40 -5 47 0 6 -14 16 -30 21 -35 12 -401 11 -433 -1z m450 -31
c-3 -13 -199 -173 -225 -183 -6 -2 -52 27 -101 65 -49 39 -99 76 -111 84 -11
7 -21 21 -21 30 0 17 17 18 231 18 192 0 230 -2 227 -14z m-2 -303 c-2 -2 -40
24 -85 58 -56 43 -78 66 -71 73 5 5 43 35 82 67 l73 56 3 -125 c1 -68 1 -127
-2 -129z m-376 187 c44 -32 79 -63 78 -67 -3 -7 -154 -123 -161 -123 -1 0 -2
56 -2 125 0 69 1 125 2 125 2 0 39 -27 83 -60z"/>
<path d="M2358 1699 l5 -496 -50 -7 c-113 -15 -230 -110 -272 -221 -44 -115
-16 -269 65 -364 35 -42 104 -92 115 -85 5 3 9 1 9 -5 0 -18 100 -43 173 -43
105 1 177 30 249 103 32 31 58 54 58 49 0 -19 -94 -100 -143 -125 -146 -71
-313 -45 -444 70 -48 43 -53 45 -52 23 0 -13 3 -17 6 -10 3 9 20 -1 50 -29
112 -103 272 -132 421 -77 70 26 160 110 197 185 28 53 30 67 30 163 0 96 -3
110 -29 165 -58 117 -184 211 -299 221 l-52 4 62 -14 c228 -53 359 -270 294
-484 -12 -39 -26 -74 -31 -77 -13 -8 -13 8 -1 20 16 17 41 117 41 165 0 98
-61 228 -133 283 -54 41 -136 78 -188 84 l-49 6 -2 496 -3 496 -5 -420 -5
-420 -4 315 c-2 173 -7 362 -11 420 -4 58 -5 -118 -2 -391z m40 -526 c-2 -10
-12 -18 -23 -18 -11 0 -21 8 -23 18 -3 13 3 17 23 17 20 0 26 -4 23 -17z m-27
-43 c7 0 26 12 41 27 l28 27 53 -19 c96 -34 148 -74 198 -153 37 -59 51 -111
50 -187 -2 -164 -110 -289 -280 -326 -59 -12 -141 -4 -141 14 0 8 -3 8 -9 -1
-6 -11 -11 -10 -25 3 -9 9 -16 11 -16 5 0 -6 -5 -8 -10 -5 -8 5 -8 11 0 20 8
9 5 11 -14 8 -42 -8 -148 79 -178 147 -44 98 -49 159 -18 251 27 80 60 127
117 170 82 61 139 75 169 42 12 -13 27 -23 35 -23z"/>
<path d="M2301 1063 c-95 -34 -173 -155 -164 -258 2 -22 8 -57 14 -78 11 -41
73 -117 95 -117 8 0 14 -4 14 -10 0 -5 6 -10 14 -10 8 0 17 -7 20 -17 6 -14 8
-14 21 3 14 18 16 18 29 1 11 -14 19 -16 37 -8 13 5 42 14 64 21 58 17 78 35
77 69 0 22 7 36 29 53 48 36 77 103 72 163 -8 92 -57 170 -114 182 -16 3 -32
10 -35 14 -9 14 -125 9 -173 -8z m161 -13 c104 -29 164 -149 123 -246 -8 -20
-12 -41 -8 -48 3 -6 3 -8 -1 -4 -5 4 -25 -2 -46 -13 -41 -22 -84 -18 -94 8 -5
13 -11 11 -33 -11 -27 -27 -69 -34 -103 -16 -43 23 -46 118 -6 176 23 32 78
54 135 54 l51 0 0 -84 c0 -93 11 -114 42 -76 25 31 24 114 -2 157 -47 78 -168
86 -244 15 -38 -36 -56 -81 -56 -143 0 -89 44 -150 120 -164 31 -6 72 0 136
20 34 10 39 -29 6 -45 -171 -77 -339 35 -318 214 16 142 163 243 298 206z"/>
<path d="M2372 884 c-44 -30 -53 -114 -12 -114 27 0 47 31 53 83 5 52 -3 58
-41 31z"/>
<path d="M2253 1206 c-120 -38 -222 -153 -252 -285 -13 -59 2 -39 18 24 32
130 150 236 293 264 34 7 37 9 13 9 -16 0 -49 -5 -72 -12z"/>
<path d="M1786 889 c-14 -11 -43 -22 -64 -25 -63 -7 -80 -13 -86 -32 -9 -27
-18 -399 -11 -423 10 -29 66 -51 118 -44 23 3 60 7 82 10 72 8 76 21 74 229
-1 200 -9 247 -44 282 -29 29 -35 30 -69 3z m54 -24 c0 -15 6 -25 15 -25 8 0
18 -12 21 -26 8 -32 -5 -396 -14 -406 -4 -3 -52 -8 -107 -10 l-100 -3 -3 214
c-2 165 1 216 10 223 7 4 44 8 81 8 48 0 67 4 66 13 -3 26 2 37 16 37 9 0 15
-9 15 -25z"/>
<path d="M1677 803 c-4 -3 -7 -60 -7 -125 l0 -119 88 3 87 3 3 123 3 122 -84
0 c-46 0 -87 -3 -90 -7z m121 -29 c32 -15 32 -16 32 -95 0 -73 -2 -79 -21 -79
-11 0 -18 -4 -14 -10 4 -7 -42 -8 -72 -1 -2 1 -6 1 -9 0 -16 -2 -24 31 -24 97
0 74 3 79 60 97 8 3 15 6 16 6 0 1 15 -6 32 -15z"/>
<path d="M1747 533 c-13 -12 -7 -23 13 -23 11 0 20 7 20 15 0 15 -21 21 -33 8z"/>
<path d="M1802 528 c7 -19 38 -22 38 -4 0 10 -9 16 -21 16 -12 0 -19 -5 -17
-12z"/>
<path d="M1807 494 c-14 -14 -7 -25 13 -22 12 2 21 8 21 13 0 12 -24 18 -34 9z"/>
<path d="M1680 435 c0 -8 9 -15 20 -15 11 0 20 7 20 15 0 8 -9 15 -20 15 -11
0 -20 -7 -20 -15z"/>
</g>
</svg>
